<?xml version="1.0" encoding="UTF-8"?>
<svg id="Mark" xmlns="http://www.w3.org/2000/svg" viewBox="0 0 153.82 180">
  <defs>
    <style>
      .cls-1 {
        fill: #fff;
      }

      .cls-2 {
        fill: none;
      }

      .cls-3 {
        fill: #e3a82b;
      }

      .cls-4 {
        fill: #234075;
      }
    </style>
  </defs>
  <g>
    <g>
      <path class="cls-4" d="M41.52,84.12c0-1.52-.11-1.92-1.13-2.01l-.71-.05c-.12-.09-.08-.5.02-.51,1.23-.11,2.78-.16,4.9-.16,1.44,0,2.81.1,3.83.58.98.43,1.73,1.25,1.73,2.57,0,1.48-.96,2.24-2.33,2.81,0,.21.18.27.43.31,1.23.21,3.06,1.23,3.06,3.43,0,2.38-1.96,3.99-6.07,3.99-.66,0-1.78-.06-2.74-.06s-1.78.04-2.62.06c-.14-.06-.18-.39-.05-.51l.41-.06c1.21-.18,1.25-.41,1.25-2.57v-7.81ZM43.39,86.85c0,.58.02.62,1.19.58,2.33-.08,3.58-.7,3.58-2.63s-1.67-2.77-3.4-2.77c-.5,0-.84.04-1.05.12-.23.06-.32.16-.32.53v4.17ZM43.39,91.62c0,.74.05,1.79.48,2.24.43.47,1.12.58,1.8.58,2.03,0,3.58-.82,3.58-2.88,0-1.62-.91-3.51-4.54-3.51-1.23,0-1.32.12-1.32.53v3.04Z"/>
      <path class="cls-4" d="M67.18,86.14c0-1.86-.04-2.16-1.19-2.25l-.49-.04c-.12-.07-.08-.39.04-.44.97.04,1.64.05,2.46.05s1.44-.02,2.42-.05c.12.05.16.37.04.44l-.49.04c-1.15.09-1.19.39-1.19,2.25v6.25c0,1.86.04,2.11,1.19,2.23l.49.05c.12.07.08.38-.04.44-.97-.04-1.64-.05-2.42-.05-.82,0-1.48.02-2.46.05-.12-.05-.16-.33-.04-.44l.49-.05c1.15-.12,1.19-.37,1.19-2.23v-6.25Z"/>
      <path class="cls-4" d="M77.99,92.42c0,1.84.04,2.11,1.09,2.2l.59.05c.11.07.07.38-.04.44-1.04-.04-1.66-.05-2.39-.05s-1.37.02-2.54.05c-.11-.05-.15-.35,0-.44l.66-.05c1.04-.09,1.13-.35,1.13-2.2v-7.85c0-.54,0-.56-.55-.56h-1c-.79,0-1.79.04-2.25.44-.44.39-.62.77-.82,1.21-.15.11-.4.02-.48-.12.29-.79.57-1.91.69-2.62.06-.04.29-.05.35,0,.11.56.71.54,1.55.54h7.39c.99,0,1.15-.04,1.42-.49.09-.04.29-.02.33.05-.2.72-.33,2.14-.27,2.67-.07.14-.38.14-.47.04-.05-.44-.18-1.09-.46-1.28-.42-.3-1.11-.44-2.12-.44h-1.3c-.55,0-.53.02-.53.6v7.81Z"/>
      <path class="cls-4" d="M85.82,86.14c0-1.86-.04-2.16-1.19-2.25l-.49-.04c-.12-.07-.08-.39.04-.44.97.04,1.64.05,2.46.05s1.44-.02,2.42-.05c.12.05.15.37.04.44l-.49.04c-1.15.09-1.19.39-1.19,2.25v6.25c0,1.86.04,2.11,1.19,2.23l.49.05c.12.07.08.38-.04.44-.97-.04-1.64-.05-2.42-.05-.82,0-1.48.02-2.46.05-.12-.05-.16-.33-.04-.44l.49-.05c1.15-.12,1.19-.37,1.19-2.23v-6.25Z"/>
      <path class="cls-4" d="M94.55,95.29c-1.74,0-2.84-.46-3.23-.65-.25-.39-.52-1.63-.56-2.46.11-.12.41-.16.5-.05.31.9,1.16,2.61,3.56,2.61,1.74,0,2.59-.96,2.59-2.02,0-.77-.19-1.63-1.7-2.46l-1.97-1.09c-1.04-.58-2.24-1.58-2.24-3.02,0-1.67,1.54-3.02,4.22-3.02.64,0,1.39.11,1.93.23.27.07.56.11.72.11.19.42.37,1.4.37,2.14-.08.1-.41.16-.52.05-.27-.84-.83-1.98-2.82-1.98s-2.46,1.14-2.46,1.95c0,1.02.99,1.76,1.76,2.16l1.66.88c1.3.68,2.59,1.7,2.59,3.37,0,1.93-1.72,3.25-4.41,3.25Z"/>
      <path class="cls-4" d="M104.97,89.39c-.91,0-.94.04-.94.56v2.47c0,1.84.09,2.09,1.15,2.2l.55.05c.11.07.08.38-.04.44-1.02-.04-1.66-.05-2.4-.05-.81,0-1.46.04-2.19.05-.11-.05-.15-.33-.04-.44l.32-.05c1.06-.18,1.09-.35,1.09-2.2v-6.32c0-1.84-.13-2.14-1.11-2.21l-.49-.04c-.11-.07-.07-.39.04-.44.93.02,1.57.05,2.38.05.74,0,1.38-.02,2.19-.05.12.05.15.37.04.44l-.36.04c-1.1.11-1.13.37-1.13,2.21v2.02c0,.54.04.56.94.56h5.4c.91,0,.95-.02.95-.56v-2.02c0-1.84-.04-2.11-1.15-2.21l-.36-.04c-.11-.07-.08-.39.04-.44.87.04,1.51.05,2.29.05s1.38-.02,2.23-.05c.12.05.15.37.04.44l-.4.04c-1.09.11-1.13.37-1.13,2.21v6.32c0,1.84.04,2.07,1.13,2.2l.45.05c.12.07.08.38-.04.44-.91-.04-1.55-.05-2.29-.05-.78,0-1.46.02-2.29.05-.11-.05-.15-.33-.04-.44l.36-.05c1.15-.18,1.15-.35,1.15-2.2v-2.47c0-.53-.04-.56-.95-.56h-5.4Z"/>
      <path class="cls-4" d="M30.71,98.96c1.55-1.21,3.53-1.8,5.74-1.8,1.15,0,2.76.23,3.76.51.26.06.4.11.59.08.02.49.13,1.82.3,3.12-.11.15-.42.17-.57.04-.32-1.44-1.28-3.1-4.36-3.1-3.25,0-6.02,2.06-6.02,6.44s2.83,6.91,6.32,6.91c2.74,0,3.96-1.78,4.44-3.03.15-.11.47-.06.55.09-.15,1.1-.7,2.5-1.02,2.9-.25.04-.51.13-.74.21-.47.17-2,.49-3.36.49-1.91,0-3.74-.38-5.3-1.42-1.7-1.16-3.02-3.09-3.02-5.83,0-2.35,1.06-4.37,2.68-5.62Z"/>
      <path class="cls-4" d="M42.34,105.82c0-3.51,2.76-6.2,6.56-6.2,4.26,0,6.4,2.93,6.4,6.02,0,3.55-2.84,6.13-6.4,6.13-4.09,0-6.56-2.79-6.56-5.95ZM53.45,106.19c0-2.9-1.35-6.02-4.87-6.02-1.92,0-4.41,1.25-4.41,5.09,0,2.6,1.33,5.97,4.96,5.97,2.21,0,4.31-1.58,4.31-5.04Z"/>
      <path class="cls-4" d="M76.09,104.31c0-1.09-.04-3.11-.35-3.63-.13-.21-.47-.33-.93-.37l-.46-.04c-.11-.12-.07-.35.04-.42.71.04,1.4.05,2.12.05.78,0,1.28-.02,1.95-.05.15.09.13.32.04.42l-.45.04c-.47.04-.82.19-.93.42-.26.58-.26,2.6-.26,3.58v1.98c0,1.53-.26,3.14-1.3,4.2-.8.83-2.18,1.28-3.55,1.28-1.29,0-2.57-.23-3.48-.97-.99-.77-1.45-2.05-1.45-4.14v-4.14c0-1.82-.04-2.12-1.12-2.21l-.47-.04c-.11-.07-.07-.37.04-.42.93.04,1.56.05,2.31.05s1.38-.02,2.29-.05c.11.05.15.35.04.42l-.45.04c-1.08.09-1.12.39-1.12,2.21v3.79c0,2.83.93,4.69,3.78,4.69,2.7,0,3.72-2,3.72-4.67v-2.02Z"/>
      <path class="cls-4" d="M97.72,102.12c0-1.31-.08-1.65-1.01-1.72l-.66-.06c-.07-.07-.12-.42.02-.43,1.11-.08,2.51-.14,4.42-.14,1.3,0,2.53.09,3.46.5.88.37,1.56,1.08,1.56,2.22,0,1.28-.86,1.93-2.1,2.43,0,.18.17.23.39.27,1.11.18,2.76,1.06,2.76,2.96,0,2.06-1.77,3.44-5.47,3.44-.6,0-1.6-.05-2.47-.05s-1.6.04-2.37.05c-.12-.05-.16-.34-.04-.44l.37-.05c1.09-.16,1.13-.35,1.13-2.22v-6.74ZM99.4,104.48c0,.5.02.53,1.07.5,2.1-.07,3.23-.6,3.23-2.27s-1.5-2.39-3.06-2.39c-.45,0-.76.04-.95.11-.21.05-.29.14-.29.46v3.6ZM99.4,108.59c0,.64.04,1.54.43,1.93.39.41,1.01.5,1.62.5,1.83,0,3.23-.71,3.23-2.48,0-1.4-.82-3.03-4.09-3.03-1.11,0-1.19.11-1.19.46v2.62Z"/>
      <rect class="cls-3" x="39.76" y="116.28" width="74.71" height=".88"/>
      <path class="cls-4" d="M64.2,94.67l-.49-.04c-.1-.01-.19-.02-.27-.04-.71-.13-1-.76-1.33-1.35l-1.69-2.93c-.29-.49-.6-1.15-1.27-1.24,1.73-.21,3.29-1.21,3.29-2.92,0-1.97-1.96-2.86-3.93-2.86-1.19,0-2.27.03-3.47.03-.66,0-1.46-.03-2.12-.03-.37,0-.37.08-.37.28,0,.31.13.22.52.24,1.41.08,1.35.34,1.35,1.54v7.69c0,1.1.1,1.43-1.06,1.54,0,0-.18.02-.28.03l-.49.05c-.12.1-.08.38.04.44.26,0,.72-.03.72-.03.64-.02,1.28-.07,1.92-.07s1.26.05,1.89.07h0c.23,0,.46.02.72.03.12-.05.16-.33.04-.44l-.49-.05c-.1-.01-.27-.03-.27-.03-1.17-.08-1.1-.41-1.1-1.54v-2.9c0-.17-.02-.62.1-.75.1-.11.29-.09.46-.09,1.58,0,1.56.15,2.31,1.47l2.04,3.67c.17.28.29.64.71.64h1.77c.22,0,.46.02.72.02.12-.05.16-.33.04-.44ZM57.1,88.9c-.35,0-1.06.13-1.06-.34v-3.37c0-1.32.04-1.5,1.62-1.5,1.85,0,3,.94,3,2.67,0,.75-.27,1.45-.96,1.92-.79.55-1.64.62-2.6.62Z"/>
      <g>
        <path class="cls-4" d="M57.48,102.58c0-1.84-.04-2.12-1.26-2.21l-.48-.03c-.12-.07-.08-.39.04-.44,1.08.04,1.74.05,2.51.05s1.41-.02,2.38-.05c.12.05.15.37.04.44l-.46.03c-1.14.09-1.18.37-1.18,2.21v6.11c0,1.11.06,1.56.41,1.9.21.19.58.4,2.1.4,1.64,0,2.05-.07,2.36-.23.39-.21.89-.84,1.27-1.74.12-.09.48-.02.48.11,0,.19-.54,1.98-.81,2.46-.98-.04-2.82-.05-4.81-.05h-1.78c-.81,0-1.43.02-2.51.05-.12-.05-.15-.33-.04-.44l.58-.05c1.12-.1,1.16-.35,1.16-2.19v-6.32Z"/>
        <path class="cls-4" d="M109.21,102.61c0-1.86-.04-2.16-1.16-2.25l-.47-.03c-.11-.07-.08-.39.04-.44.95.04,1.59.05,2.39.05s1.4-.02,2.35-.05c.12.05.15.37.04.44l-.47.03c-1.12.09-1.16.39-1.16,2.25v6.25c0,1.86.04,2.11,1.16,2.23l.47.05c.12.07.08.39-.04.44-.95-.04-1.59-.05-2.35-.05s-1.44.02-2.39.05c-.12-.05-.15-.33-.04-.44l.47-.05c1.12-.12,1.16-.37,1.16-2.23v-6.25Z"/>
        <path class="cls-4" d="M94.06,111.09c-.1-.01-.28-.03-.28-.03-.2-.02-.38-.05-.52-.2-.25-.26-.23-1.01-.23-1.3v-7.69c0-.33-.08-1.06.16-1.32.12-.14.38-.16.61-.17h0c.14-.01.14-.01.26-.02l.49-.04c.12-.07.08-.39-.04-.44-.26,0-.5,0-.72.01h0s-2.07,0-2.07,0c-.23,0-.43,0-.55.24l-4.22,8.79-3.73-8.49c-.12-.3-.14-.54-.53-.54h-2.16c-.22,0-.47,0-.73-.01-.12.05-.16.37-.04.44l.49.04c.1,0,.28.02.28.02.81.05.86.23.79,1.08l-.63,8.25c-.05.83-.1,1.27-.97,1.35,0,0-.18.02-.28.04l-.49.05c-.12.11-.08.39.04.44.26,0,.71-.02.71-.02.44-.02.89-.06,1.34-.06.48,0,.97.05,1.45.07h0c.22,0,.46.01.72.03.12-.05.16-.33.04-.44l-.49-.05c-.13-.01-.27-.02-.27-.02-1.25-.08-1.22-.97-1.15-2.05l.6-7.67h.14l4.04,9.44c.04.13.1.35.31.35.19,0,.25-.21.3-.34l4.55-9.68h.14v8.44c0,.33.04,1.02-.31,1.28-.18.14-.77.22-.77.22-.08.01-.17.02-.26.04l-.49.05c-.12.11-.08.39.04.44.26,0,.71-.02.71-.02.66-.02,1.33-.07,2-.07.48,0,1.43.05,1.43.05.23,0,.48.03.74.04.12-.05.15-.33.04-.44l-.49-.05Z"/>
        <path class="cls-4" d="M125.72,111.14l-.06-.05c-.1-.01-.18-.02-.27-.04-.76-.17-1.05-1.08-1.34-1.74l-3.9-9.25c-.04-.11-.12-.35-.27-.35-.21,0-.27.26-.33.41l-3.73,9.23c-.14.35-.48,1.2-.74,1.46-.19.2-.44.24-.71.26,0,0-.21.02-.31.03l-.46.05c-.12.11-.08.39.04.44.26,0,.72-.03.72-.03.51,0,1.02-.07,1.53-.07.43,0,.86.05,1.29.07,0,0,.46.02.72.03.12-.05.16-.33.04-.44l-.49-.05c-.1-.01-.27-.03-.27-.03-.45-.05-1.01-.13-1.01-.62,0-.33.15-.72.27-1.01l.58-1.38c.29-.66.18-.74.95-.74h2.63c.93,0,.79,0,1.2.94l.62,1.4c.1.24.27.65.27.9,0,.46-.5.49-.98.53,0,0-.16.01-.29.02l-.47.04c-.12.1-.08.39.04.44.26,0,.72-.03.72-.03.55-.02,1.1-.06,1.63-.06.68,0,1.36.05,2.03.07h0c.22,0,.04.01.29.02.12-.05.16-.33.04-.44ZM120.6,106.79h-2.28c-.08,0-.71.07-.71-.11,0-.06.04-.17.06-.22l1.37-3.39c.04-.09.18-.56.34-.56.12,0,.28.48.32.56l1.35,3.16s.14.34.14.41c0,.21-.46.15-.57.15Z"/>
      </g>
    </g>
    <path class="cls-1" d="M49.59,71.12c12.34,0,29.41,6.95,41.79,6.95,8.84,0,17.46-2.36,22.37-5.83.34-2.04.53-4.13.53-6.27,0-20.74-16.81-37.55-37.55-37.55s-37.55,16.81-37.55,37.55c0,2.11.18,4.18.51,6.2,1.35-.25,5.96-1.04,9.9-1.04Z"/>
    <g>
      <polygon class="cls-3" points="100.98 57.29 102.47 57.9 105.76 55.61 100.98 57.29"/>
      <path class="cls-3" d="M45.66,54.72l-3.9-1.37.2-.48,4.4,1.47h.02s.58-.34.58-.34l.23-.15-4.79-2.04.2-.5,10.7,4.33.35-.15-10.61-5.17.24-.49,11.24,5.23.16-.08-10.9-6.18.22-.46,15.74,8.57c.13-.24.4-.67.54-.91-5.99-5.63-11.76-9.85-11.76-9.85,0,0,5.94,3.98,13.27,7.68.24-.3.44-.54.7-.83l-13.43-11.82.36-.37,10.84,9.24-10.04-10.06.38-.39,11.27,10.9-10.5-11.65.4-.36,9.7,10.39-8.85-11.16.38-.35,11.35,13.81c.29-.25.54-.44.84-.68-3.43-7.43-7.18-13.47-7.18-13.47,0,0,3.99,5.87,9.37,12.02.33-.19.66-.36,1-.53l-.06-.04-7.95-15.87.47-.21,6.59,12.63-5.54-13.09.49-.22,6.37,14.33-5.37-14.73.51-.19,5.1,13.26-4.03-13.66.48-.18,5.31,16.94v.05s0,0,0,0c.35-.12.71-.22,1.07-.32-.4-8.14-1.61-15.1-1.61-15.1,0,0,1.49,6.9,4.16,14.59.37-.05.75-.08,1.12-.11v-.02s.03,0,.03,0l-.03-.04-1.43-17.7.52-.02,1.38,14.18-.24-14.21.54-.02.54,15.67.54-15.67.54.02-.24,14.21,1.38-14.17.52.02-1.43,17.7-.03.04h0,0s.02,0,.02,0c.37.02.74.06,1.1.1,2.67-7.69,4.16-14.58,4.16-14.58,0,0-1.2,6.94-1.61,15.06.36.1.72.2,1.08.32l5.29-16.88.49.18-4.03,13.66,5.1-13.26.51.19-5.37,14.73,6.37-14.33.49.22-5.54,13.09,6.59-12.62.47.21-7.92,15.82h.01c.33.16.64.33.96.51,5.36-6.13,9.33-11.97,9.33-11.97,0,0-3.72,6-7.15,13.39.3.23.61.47.9.72l11.21-13.66.38.35-8.85,11.16,9.7-10.39.4.36-10.5,11.65,11.28-10.9.38.39-10.04,10.06,10.84-9.24.36.37-13.27,11.69h0c.23.27.45.53.67.8,7.29-3.68,13.17-7.62,13.17-7.62,0,0-5.72,4.18-11.67,9.77.16.27.43.74.58,1.02l15.52-8.45.22.47-12.39,7.03,12.88-6,.24.49-12,5.85.23.08,12.21-4.94.2.5-11.35,4.83.21.09,7.56-2.52,1.14-.8.38.29,2.49-.83.2.48-2.15.76,3.11,2.37,1,.56c-4-16.72-19.04-29.15-36.99-29.15s-33.52,12.87-37.19,30.04c.05-.02.09-.04.14-.07l.46-.21.28-.13,5.25-2.94Z"/>
    </g>
    <path class="cls-4" d="M39.32,72.98s5.61-1.12,10.29-1.12c12.34,0,29.41,6.95,41.79,6.95,9.09,0,17.95-2.49,22.78-6.13.38-2.15.57-4.36.57-6.62,0-3.06-.36-6.03-1.04-8.88l-5.16-2.88-6.06,4.25-4.07-1.59c-1.38.7-9.89,6.39-9.89,6.39l-3.27-2.36-3.51-.69-4.67-3.4-5.36,3.68s-5.98,3.47-6.19,3.47-7.22-5.56-7.22-5.56l-3.23-3.4c-.55.35-2.75,1.36-2.75,1.36l-.11.03-2.13-.66-2.58-1.37-7.84,3.56s-.09.04-.14.07c-.55,2.58-.84,5.25-.84,7.99,0,2.36.22,4.67.63,6.92Z"/>
  </g>
  <g>
    <path class="cls-4" d="M43.82,129.2c.41.85.81,1.67,1.24,2.47h.04c.49-.85.94-1.78,1.39-2.7l1.69-3.44c.81-1.64,1.33-2.63,1.37-3.46.61.05.99.05,1.35.05.45,0,1.04-.02,1.6-.05.11.07.11.38.02.45l-.38.04c-1.13.11-1.28.45-1.26,1.71.04,1.91.05,5.24.2,7.83.05.9.04,1.39.88,1.46l.58.05c.11.11.09.38-.04.45-.74-.04-1.48-.05-2.12-.05s-1.44.02-2.18.05c-.13-.09-.14-.34-.04-.45l.52-.05c.88-.09.88-.38.88-1.53l-.05-7.51h-.04c-.13.2-.81,1.64-1.17,2.34l-1.6,3.15c-.81,1.58-1.62,3.28-1.94,4.11-.04.05-.11.07-.18.07-.04,0-.13-.02-.16-.07-.31-.96-1.17-2.72-1.58-3.6l-1.62-3.47c-.38-.83-.76-1.76-1.15-2.59h-.04c-.07,1.12-.13,2.16-.18,3.21-.05,1.1-.13,2.7-.13,4.23,0,1.33.11,1.62.81,1.67l.68.05c.13.11.11.4-.02.45-.61-.04-1.31-.05-2-.05-.58,0-1.22.02-1.84.05-.11-.09-.14-.36-.04-.45l.4-.05c.76-.11,1.01-.22,1.12-1.48.11-1.19.2-2.18.31-3.96.09-1.49.16-3.03.2-4.02.04-1.13-.11-1.4-1.21-1.55l-.29-.04c-.09-.11-.07-.38.07-.45.54.04.97.05,1.42.05.41,0,.9,0,1.49-.05-.07.7.38,1.82.94,2.97l2.05,4.16Z"/>
    <path class="cls-4" d="M54.91,128.84c0-.7,0-.79-.49-1.12l-.16-.11c-.07-.07-.07-.27.02-.32.41-.14,1.44-.61,1.85-.88.09,0,.16.04.18.11-.04.63-.07,1.49-.07,2.23v3.24c0,1.3.04,1.48.68,1.57l.38.05c.13.09.09.4-.04.45-.54-.04-1.06-.05-1.69-.05s-1.19.02-1.69.05c-.13-.05-.16-.36-.04-.45l.38-.05c.67-.09.68-.27.68-1.57v-3.15ZM56.41,123.71c0,.65-.45.94-.95.94-.56,0-.92-.41-.92-.9,0-.59.43-.97.97-.97s.9.43.9.94Z"/>
    <path class="cls-4" d="M59.44,128.84c0-.7,0-.79-.49-1.12l-.16-.11c-.07-.07-.07-.27.02-.32.41-.14,1.44-.61,1.8-.88.07,0,.16.04.2.13-.04.41-.04.68-.04.85,0,.11.07.2.2.2.76-.47,1.6-.92,2.52-.92,1.49,0,2.11,1.03,2.11,2.23v3.1c0,1.3.04,1.48.68,1.57l.4.05c.13.09.09.4-.04.45-.54-.04-1.06-.05-1.69-.05s-1.19.02-1.67.05c-.13-.05-.16-.36-.04-.45l.34-.05c.67-.11.68-.27.68-1.57v-2.68c0-1.03-.47-1.78-1.69-1.78-.68,0-1.28.29-1.53.63-.23.31-.27.56-.27,1.08v2.75c0,1.3.04,1.46.68,1.57l.32.05c.13.09.09.4-.04.45-.49-.04-1.01-.05-1.64-.05s-1.19.02-1.69.05c-.13-.05-.16-.36-.04-.45l.38-.05c.67-.09.68-.27.68-1.57v-3.15Z"/>
    <path class="cls-4" d="M68.82,128.84c0-.7,0-.79-.49-1.12l-.16-.11c-.07-.07-.07-.27.02-.32.41-.14,1.44-.61,1.85-.88.09,0,.16.04.18.11-.04.63-.07,1.49-.07,2.23v3.24c0,1.3.04,1.48.68,1.57l.38.05c.13.09.09.4-.04.45-.54-.04-1.06-.05-1.69-.05s-1.19.02-1.69.05c-.13-.05-.16-.36-.04-.45l.38-.05c.67-.09.68-.27.68-1.57v-3.15ZM70.31,123.71c0,.65-.45.94-.95.94-.56,0-.92-.41-.92-.9,0-.59.43-.97.97-.97s.9.43.9.94Z"/>
    <path class="cls-4" d="M76.49,126.99c.16.4.29.97.29,1.46-.07.13-.34.16-.43.05-.31-.79-.85-1.31-1.58-1.31s-1.15.45-1.15,1.1c0,.74.76,1.13,1.39,1.49.95.54,1.84,1.15,1.84,2.43,0,1.37-1.26,2.05-2.59,2.05-.85,0-1.48-.18-1.93-.54-.14-.34-.25-1.22-.22-1.82.09-.11.32-.13.41-.02.31.99.88,1.85,1.91,1.85.65,0,1.21-.38,1.21-1.15,0-.83-.72-1.28-1.39-1.66-1.04-.59-1.78-1.22-1.78-2.21,0-1.31,1.08-2.05,2.45-2.05.76,0,1.42.18,1.58.32Z"/>
    <path class="cls-4" d="M80.39,127.67c-.31,0-.32.05-.32.43v3.37c0,1.04.12,2,1.31,2,.18,0,.34-.04.49-.09.16-.05.39-.25.45-.25.14,0,.22.2.18.31-.32.38-.97.83-1.89.83-1.55,0-1.87-.86-1.87-1.94v-4.12c0-.49-.02-.52-.38-.52h-.5c-.11-.07-.13-.27-.05-.38.52-.16.97-.4,1.15-.56.23-.22.58-.7.76-1.06.09-.04.31-.04.38.09v.81c0,.32.02.34.32.34h2c.22.16.18.65.02.76h-2.03Z"/>
    <path class="cls-4" d="M84.42,128.84c0-.7,0-.79-.49-1.12l-.16-.11c-.07-.07-.07-.27.02-.32.41-.14,1.37-.61,1.82-.88.09.02.14.05.14.13v1.05c0,.09.02.14.05.16.63-.52,1.31-1.08,1.98-1.08.45,0,.81.29.81.72,0,.59-.48.83-.77.83-.18,0-.27-.05-.4-.13-.27-.18-.54-.29-.79-.29-.29,0-.51.16-.65.36-.18.25-.23.77-.23,1.39v2.45c0,1.3.04,1.51.72,1.57l.65.05c.12.09.09.4-.04.45-.85-.04-1.37-.05-2-.05s-1.19.02-1.66.05c-.13-.05-.16-.36-.04-.45l.34-.05c.67-.11.69-.27.69-1.57v-3.15Z"/>
    <path class="cls-4" d="M89.45,137.72c0-.49.32-.72.72-.72h.34c.29,0,.47-.13.59-.32.52-.81.88-1.57,1.04-2,.05-.14.18-.52.18-.77,0-.36-.07-.58-.31-1.24l-1.4-3.85c-.3-.85-.43-1.28-1.06-1.41l-.45-.09c-.11-.09-.09-.4.05-.45.58.04,1.12.05,1.71.05.49,0,.99-.02,1.57-.05.14.05.16.36.04.45l-.45.09c-.25.05-.4.11-.4.23,0,.22.42,1.39.52,1.69l.58,1.66c.11.29.45,1.24.52,1.28.05-.04.34-.59.67-1.33l.61-1.42c.4-.94.63-1.6.63-1.8,0-.13-.11-.25-.43-.31l-.56-.09c-.12-.09-.11-.4.04-.45.58.04,1.12.05,1.58.05s.87-.02,1.37-.05c.14.07.16.34.04.45l-.31.05c-.59.11-.92.63-1.53,1.91l-1.01,2.07c-.6,1.21-2.07,4.34-2.95,6.3-.31.68-.74.85-1.15.85-.52,0-.79-.32-.79-.77Z"/>
    <path class="cls-4" d="M109.17,130.39c0,2.25-1.55,3.87-3.8,3.87-2.07,0-3.69-1.46-3.69-3.71s1.71-3.89,3.84-3.89c2.02,0,3.65,1.51,3.65,3.73ZM105.29,127.2c-1.19,0-2.07,1.13-2.07,3.11,0,1.64.74,3.4,2.32,3.4s2.07-1.66,2.07-3.04c0-1.53-.61-3.47-2.32-3.47Z"/>
    <path class="cls-4" d="M112.64,127.67c-.3,0-.3.04-.3.52v3.8c0,1.3.04,1.51.68,1.57l.65.05c.12.09.09.4-.04.45-.81-.04-1.33-.05-1.96-.05s-1.19.02-1.73.05c-.13-.05-.16-.36-.04-.45l.41-.05c.67-.09.69-.27.69-1.57v-3.8c0-.49,0-.52-.36-.52h-.63c-.11-.07-.13-.23-.05-.34l.77-.38c.14-.07.27-.18.27-.36,0-1.04.12-2.16.56-3.17.45-1.03,1.46-2.29,3.24-2.29.95,0,1.76.43,1.76,1.08,0,.36-.34.65-.68.65-.2,0-.31-.07-.43-.22-.34-.4-.85-.79-1.44-.79-.56,0-1.01.34-1.28.99-.32.83-.4,2.14-.4,3.04v.52c0,.49,0,.5.3.5h2.05c.2.18.07.68-.12.76h-1.93Z"/>
    <path class="cls-4" d="M56.69,146.19c-.86,0-.9.04-.9.58v2.54c0,1.89.09,2.14,1.1,2.25l.52.05c.11.07.07.4-.04.45-.97-.04-1.58-.05-2.29-.05-.77,0-1.39.04-2.09.05-.11-.05-.14-.34-.04-.45l.31-.05c1.01-.18,1.04-.36,1.04-2.25v-6.48c0-1.89-.13-2.2-1.06-2.27l-.47-.04c-.11-.07-.07-.4.04-.45.88.02,1.49.05,2.27.05.7,0,1.31-.02,2.09-.05.11.05.14.38.04.45l-.34.04c-1.04.11-1.08.38-1.08,2.27v2.07c0,.56.04.58.9.58h5.15c.86,0,.9-.02.9-.58v-2.07c0-1.89-.04-2.16-1.1-2.27l-.34-.04c-.11-.07-.07-.4.04-.45.83.04,1.44.05,2.18.05s1.31-.02,2.12-.05c.11.05.14.38.04.45l-.38.04c-1.04.11-1.08.38-1.08,2.27v6.48c0,1.89.04,2.12,1.08,2.25l.43.05c.11.07.07.4-.04.45-.86-.04-1.48-.05-2.18-.05-.74,0-1.39.02-2.18.05-.11-.05-.14-.34-.04-.45l.34-.05c1.1-.18,1.1-.36,1.1-2.25v-2.54c0-.54-.04-.58-.9-.58h-5.15Z"/>
    <path class="cls-4" d="M68.29,147.4c-.47,0-.49.04-.49.49,0,1.82,1.06,3.37,2.99,3.37.59,0,1.1-.18,1.66-.88.18-.05.31.05.32.22-.59,1.22-1.89,1.67-2.83,1.67-1.17,0-2.09-.5-2.61-1.19-.54-.7-.76-1.55-.76-2.34,0-2.21,1.46-4.07,3.62-4.07,1.55,0,2.56,1.06,2.56,2.14,0,.25-.04.4-.07.47-.05.11-.31.13-1.06.13h-3.33ZM69.4,146.86c1.33,0,1.73-.07,1.87-.18.05-.04.11-.11.11-.34,0-.5-.34-1.13-1.39-1.13s-1.98.97-2,1.57c0,.04,0,.09.13.09h1.28Z"/>
    <path class="cls-4" d="M77.28,148.28c.27-.09.31-.25.31-.52l.02-.83c.02-.67-.2-1.57-1.31-1.57-.5,0-1.12.25-1.15.81-.02.29-.04.5-.18.61-.27.22-.76.34-1.03.34-.16,0-.25-.09-.25-.25,0-.94,2.03-2.21,3.35-2.21s1.93.76,1.87,2.11l-.11,3.13c-.04.83.12,1.57.83,1.57.18,0,.34-.05.45-.11.09-.05.18-.13.23-.13.07,0,.13.11.13.23,0,.09-.63.79-1.51.79-.43,0-.86-.16-1.17-.56-.07-.11-.18-.25-.29-.25-.13,0-.34.16-.7.36-.4.22-.79.45-1.3.45s-.95-.14-1.26-.41c-.34-.31-.56-.76-.56-1.26,0-.7.34-1.12,1.49-1.53l2.14-.77ZM76.17,151.45c.36,0,.92-.27,1.1-.45.22-.22.22-.47.23-.85l.04-1.06c0-.2-.07-.23-.18-.23s-.41.07-.74.18c-1.06.36-1.58.63-1.58,1.33,0,.31.22,1.08,1.13,1.08Z"/>
    <path class="cls-4" d="M83.49,149.99c0,1.3.04,1.48.68,1.57l.43.05c.13.09.09.4-.04.45-.59-.04-1.12-.05-1.75-.05s-1.19.02-1.73.05c-.13-.05-.16-.36-.04-.45l.41-.05c.67-.09.69-.27.69-1.57v-8.14c0-1.06-.02-1.17-.56-1.49l-.18-.11c-.09-.05-.09-.31,0-.36.45-.14,1.29-.41,1.94-.76.07,0,.14.04.18.11-.02.54-.05,1.44-.05,2.23v8.52Z"/>
    <path class="cls-4" d="M87.64,145.67c-.31,0-.32.05-.32.43v3.37c0,1.04.13,2,1.31,2,.18,0,.34-.04.49-.09.16-.05.4-.25.45-.25.14,0,.21.2.18.31-.32.38-.97.83-1.89.83-1.55,0-1.87-.86-1.87-1.94v-4.12c0-.49-.02-.52-.38-.52h-.5c-.11-.07-.12-.27-.05-.38.52-.16.97-.4,1.15-.56.23-.22.58-.7.76-1.06.09-.04.31-.04.38.09v.81c0,.32.02.34.32.34h2c.21.16.18.65.02.76h-2.04Z"/>
    <path class="cls-4" d="M91.64,141.85c0-1.06-.02-1.17-.56-1.49l-.18-.11c-.09-.05-.09-.31,0-.36.45-.14,1.29-.41,1.94-.76.07,0,.14.04.18.11-.02.54-.05,1.44-.05,2.23v3.78c0,.16.02.31.07.34.65-.5,1.51-.94,2.43-.94,1.71,0,2.32,1.06,2.32,2.32v3.01c0,1.3.04,1.49.69,1.57l.49.05c.12.09.09.4-.04.45-.65-.04-1.17-.05-1.8-.05s-1.19.02-1.67.05c-.13-.05-.16-.36-.04-.45l.36-.05c.67-.11.68-.27.68-1.57v-2.58c0-1.15-.56-1.93-1.71-1.93-.61,0-1.08.22-1.4.49-.32.27-.38.36-.38.99v3.02c0,1.3.04,1.48.68,1.57l.38.05c.12.07.09.4-.04.45-.54-.04-1.06-.05-1.69-.05s-1.19.02-1.77.05c-.12-.05-.16-.36-.04-.45l.45-.05c.67-.07.69-.27.69-1.57v-8.14Z"/>
  </g>
  <rect class="cls-2" width="153.82" height="180"/>
</svg>